Patient4_TMGait_0pt5_01_right_37_GRF.mot
version=1
nRows=39
nColumns=19
inDegrees=no
endheader
time	F1x	F1y	F1z	M1x	M1y	M1z	F2x	F2y	F2z	M2x	M2y	M2z	EC1x	EC1y	EC1z	EC2x	EC2y	EC2z
48.64	0.51201	751.8815	62.5735	-271.7825	-51.7063	613.4467	4.2968	2.356	-6.9141	2.0196	4.3024	0.78784	-0.0592	0.0182	-0.0073	-0.0462	0.0165	0.9585
48.6534	5.342	748.6202	61.1227	-270.8119	-48.0048	610.2531	2.7042	2.1005	-4.7023	1.5718	3.0236	1.0074	-0.0592	0.0182	-0.0073	-0.0462	0.0165	0.9585
48.6667	9.5804	746.3082	59.8977	-270.0592	-44.7163	607.1731	1.3675	1.9225	-2.8017	1.1984	1.9101	1.2292	-0.0592	0.0182	-0.0073	-0.0462	0.0165	0.9585
48.6801	12.9285	745.3874	58.9768	-269.6582	-42.0509	604.6141	0.3545	1.826	-1.3386	0.9252	1.0458	1.4425	-0.0592	0.0182	-0.0073	-0.0462	0.0165	0.9585
48.6934	15.3444	745.9637	58.3934	-269.6513	-40.0632	602.7607	-0.35025	1.8003	-0.32701	0.75202	0.44943	1.6365	-0.0592	0.0182	-0.0073	-0.0462	0.0165	0.9585
48.7068	16.9777	747.829	58.1071	-269.9874	-38.6629	601.5323	-0.79579	1.8145	0.29305	0.65899	0.091942	1.7851	-0.0592	0.0182	-0.0073	-0.0462	0.0165	0.9585
48.7201	18.087	750.5264	58.0632	-270.5397	-37.7033	600.626	-1.0557	1.8299	0.60607	0.61525	-0.070567	1.8762	-0.0592	0.0182	-0.0073	-0.0462	0.0165	0.9585
48.7335	18.9717	753.4787	58.1656	-271.1429	-36.9887	599.6185	-1.191	1.7885	0.70571	0.58243	-0.097891	1.8691	-0.0592	0.0182	-0.0073	-0.0462	0.0165	0.9585
48.7469	19.9214	756.1249	58.3284	-271.6347	-36.3383	598.0847	-1.2539	1.6224	0.6641	0.51965	-0.032863	1.7073	-0.0592	0.0182	-0.0073	-0.0462	0.0165	0.9585
48.7602	21.185	758.023	58.4619	-271.888	-35.584	595.6859	-1.2745	1.2414	0.54446	0.38216	0.083085	1.3137	-0.0592	0.0182	-0.0073	-0.0462	0.0165	0.9585
48.7736	22.9416	758.9093	58.5026	-271.8253	-34.6045	592.2297	-1.2638	0.54687	0.38639	0.12305	0.22244	0.60892	-0.0592	0.0182	-0.0073	-0.0462	0.0165	0.9585
48.7869	25.2957	758.7257	58.4167	-271.4293	-33.3297	587.7067	-1.225	-0.5414	0.23069	-0.29721	0.34671	-0.47068	-0.0592	0.0182	-0.0073	-0.0462	0.0165	0.9585
48.8003	28.2633	757.5957	58.2124	-270.7344	-31.7552	582.2725	-1.1362	-2.0795	0.097016	-0.90478	0.42517	-1.9792	-0.0592	0.0182	-0.0073	-0.0462	0.0165	0.9585
48.8136	31.7993	755.765	57.9352	-269.8083	-29.9252	576.1881	-0.96879	-4.0557	0.010167	-1.6951	0.41917	-3.9044	-0.0592	0.0182	-0.0073	-0.0462	0.0165	0.9585
48.827	35.813	753.5268	57.6535	-268.7278	-27.9227	569.7623	-0.66551	-6.3329	-0.019381	-2.6101	0.2967	-6.1196	-0.0592	0.0182	-0.0073	-0.0462	0.0165	0.9585
48.8404	40.1608	751.1236	57.4543	-267.5446	-25.8672	563.2855	-0.16216	-8.5707	0.031789	-3.5086	0.013367	-8.3028	-0.0592	0.0182	-0.0073	-0.0462	0.0165	0.9585
48.8537	44.6721	748.6816	57.4137	-266.266	-23.8791	556.9637	0.60507	-10.1365	0.18703	-4.1329	-0.47515	-9.8416	-0.0592	0.0182	-0.0073	-0.0462	0.0165	0.9585
48.8671	49.12	746.1763	57.5884	-264.8489	-22.0815	550.9119	1.6872	-10.0335	0.47967	-4.0788	-1.2147	-9.7685	-0.0592	0.0182	-0.0073	-0.0462	0.0165	0.9585
48.8804	53.252	743.4183	57.9745	-263.2015	-20.5598	545.1231	3.0827	-6.8506	0.93755	-2.7754	-2.2245	-6.7183	-0.0592	0.0182	-0.0073	-0.0462	0.0165	0.9585
48.8938	56.7828	740.0152	58.5084	-261.1703	-19.3714	539.4469	4.7055	1.2227	1.5839	0.50812	-3.4835	1.062	-0.0592	0.0182	-0.0073	-0.0462	0.0165	0.9585
48.9071	59.4214	735.3048	59.0576	-258.5183	-18.5332	533.5288	6.3278	16.2882	2.4114	6.6162	-4.8831	15.6064	-0.0592	0.0182	-0.0073	-0.0462	0.0165	0.9585
48.9205	60.9084	728.2933	59.4378	-254.9065	-18.0236	526.7394	7.5214	40.4044	3.3712	16.3732	-6.1881	38.909	-0.0592	0.0182	-0.0073	-0.0462	0.0165	0.9585
48.9339	61.0389	717.6636	59.4217	-249.9014	-17.7746	518.1739	7.5816	75.0561	4.3245	30.3667	-6.9698	72.4153	-0.0592	0.0182	-0.0073	-0.0462	0.0165	0.9585
48.9472	59.7267	701.9195	58.762	-243.0319	-17.6636	506.729	5.5098	120.3845	5.0195	48.6354	-6.5942	116.2886	-0.0592	0.0182	-0.0073	-0.0462	0.0165	0.9585
48.9606	57.0421	679.7374	57.2109	-233.9147	-17.5074	491.3509	0.50806	174.2568	5.0937	70.2949	-4.4168	168.4971	-0.0592	0.0182	-0.0073	-0.0462	0.0165	0.9585
48.9739	53.2479	650.388	54.5842	-222.397	-17.0936	471.3278	-7.0448	231.8709	4.124	93.3758	-0.209	224.3791	-0.0592	0.0182	-0.0073	-0.0462	0.0165	0.9585
48.9873	48.7878	614.0677	50.8338	-208.6588	-16.2243	446.5319	-15.6217	287.057	1.6321	115.3656	5.8587	277.8448	-0.0592	0.0182	-0.0073	-0.0462	0.0165	0.9585
49.0006	44.1879	571.8762	46.1215	-193.1742	-14.8035	417.466	-23.7485	335.3227	-2.2681	134.4532	13.0566	324.368	-0.0592	0.0182	-0.0073	-0.0462	0.0165	0.9585
49.014	39.88	525.2227	40.7971	-176.4833	-12.8888	384.898	-30.5121	375.2976	-7.1041	150.1021	20.5419	362.5182	-0.0592	0.0182	-0.0073	-0.0462	0.0165	0.9585
49.0274	36.0103	475.2773	35.255	-158.9925	-10.6734	349.5479	-35.5294	407.8685	-12.2058	162.7077	27.5069	393.1205	-0.0592	0.0182	-0.0073	-0.0462	0.0165	0.9585
49.0407	32.5045	423.088	29.7831	-141.0277	-8.3551	312.1551	-38.8301	435.2497	-17.0413	173.1894	33.4537	418.3271	-0.0592	0.0182	-0.0073	-0.0462	0.0165	0.9585
49.0541	29.1546	369.8164	24.5699	-122.9292	-6.1179	273.6213	-40.6067	460.2991	-21.2204	182.7124	38.101	440.8711	-0.0592	0.0182	-0.0073	-0.0462	0.0165	0.9585
49.0674	25.6908	316.7712	19.7251	-105.0749	-4.1213	234.9852	-41.1777	485.8558	-24.676	192.4088	41.5253	463.4905	-0.0592	0.0182	-0.0073	-0.0462	0.0165	0.9585
49.0808	21.8716	265.3274	15.3542	-87.8637	-2.527	197.3333	-40.8606	514.0428	-27.5497	203.1093	44.0045	488.2319	-0.0592	0.0182	-0.0073	-0.0462	0.0165	0.9585
49.0941	17.5762	216.837	11.5462	-71.6987	-1.4498	161.7283	-39.9627	545.7901	-30.1979	215.1565	46.0076	516.0157	-0.0592	0.0182	-0.0073	-0.0462	0.0165	0.9585
49.1075	12.8629	172.5665	8.3873	-56.9685	-0.94489	129.1419	-38.7873	580.7457	-32.9546	228.3873	47.9691	546.5449	-0.0592	0.0182	-0.0073	-0.0462	0.0165	0.9585
49.1209	7.9864	133.5227	5.9193	-43.9899	-0.96546	100.3255	-37.5862	617.5676	-36.0952	242.2575	50.2458	578.5928	-0.0592	0.0182	-0.0073	-0.0462	0.0165	0.9585
49.1342	3.3198	100.2247	4.1321	-32.9281	-1.3853	75.658	-36.5387	654.4526	-39.6528	256.0557	52.9406	610.5167	-0.0592	0.0182	-0.0073	-0.0462	0.0165	0.9585
49.1476	-0.76537	72.6623	2.9247	-23.7816	-2.0099	55.1417	-35.6902	689.4955	-43.5043	269.0494	55.9636	640.5697	-0.0592	0.0182	-0.0073	-0.0462	0.0165	0.9585
